<svg width="86" height="62" viewBox="0 0 86 62" fill="none" xmlns="http://www.w3.org/2000/svg">
<path d="M2.63678 57.6664C1.6814 55.1413 0.992963 52.6472 0.571476 50.1841C0.216073 47.6538 0.0261677 44.9887 0.00176028 42.1888C-0.0784355 32.9892 2.58157 24.5656 7.98178 16.9183C13.382 9.27092 21.701 3.76486 32.9387 0.400107C35.483 1.64464 37.3001 3.59554 38.39 6.25281C39.5459 8.84283 40.0022 11.4723 39.7588 14.1412C37.6313 14.8264 35.2744 15.947 32.6878 17.5029C30.1674 18.9916 27.984 20.9107 26.1378 23.2603C24.2909 25.5431 23.3142 28.2184 23.2076 31.2861C24.8099 31.5388 26.4797 31.8909 28.217 32.3425C29.9538 32.7274 31.292 33.2824 32.2317 34.0075C32.9088 35.2017 33.4572 36.9303 33.8769 39.1934C34.3628 41.3893 34.6141 43.4538 34.631 45.3871C34.6478 47.3203 34.4337 49.5223 33.9885 51.9929C33.6095 54.3963 33.0918 56.2009 32.4356 57.4067C30.7111 58.4217 28.4184 59.2751 25.5577 59.9667C22.7636 60.6578 20.1 61.0143 17.5667 61.0364C15.0335 61.0585 12.3307 60.7487 9.45831 60.1071C6.58594 59.4654 4.3121 58.6519 2.63678 57.6664ZM48.535 57.2663C47.5797 54.7412 46.8912 52.2471 46.4697 49.784C46.1143 47.2537 45.9244 44.5886 45.9 41.7887C45.8198 32.589 48.4798 24.1655 53.88 16.5182C59.2803 8.87081 67.5992 3.36475 78.837 0C81.3813 1.24453 83.1984 3.19543 84.2882 5.85271C85.4442 8.44272 85.9005 11.0722 85.657 13.7411C83.5296 14.4263 81.1726 15.5469 78.5861 17.1028C76.0656 18.5915 73.8823 20.5106 72.036 22.8602C70.1892 25.143 69.2125 27.8183 69.1059 30.886C70.7081 31.1387 72.3779 31.4908 74.1153 31.9424C75.852 32.3273 77.1902 32.8823 78.1299 33.6074C78.807 34.8016 79.3555 36.5302 79.7752 38.7933C80.261 40.9891 80.5124 43.0537 80.5292 44.987C80.5461 46.9202 80.3319 49.1222 79.8868 51.5928C79.5077 53.9962 78.9901 55.8008 78.3339 57.0066C76.6094 58.0216 74.3167 58.875 71.456 59.5666C68.6619 60.2577 65.9982 60.6142 63.465 60.6363C60.9317 60.6584 58.2289 60.3486 55.3566 59.707C52.4842 59.0653 50.2104 58.2518 48.535 57.2663Z" fill="#9932F8"/>
</svg>
