<svg width="87" height="61" viewBox="0 0 87 61" fill="none" xmlns="http://www.w3.org/2000/svg">
<path d="M37.58 3.5C38.5133 6.1 39.1467 8.66667 39.48 11.2C39.88 13.6667 40.08 16.2667 40.08 19C40.08 28.2 37.3467 36.6333 31.88 44.3C26.4133 51.9 18.08 57.3333 6.88 60.6C4.28 59.3333 2.41333 57.4 1.28 54.8C0.213333 52.1333 -0.186667 49.4667 0.08 46.8C2.28 46.0667 4.64667 44.9667 7.18 43.5C9.71333 41.9667 11.9133 40.0667 13.78 37.8C15.7133 35.5333 16.7133 32.8667 16.78 29.8C15.18 29.5333 13.5133 29.2 11.78 28.8C10.1133 28.3333 8.78 27.7 7.78 26.9C7.18 25.7 6.64667 24 6.18 21.8C5.78 19.5333 5.58 17.4333 5.58 15.5C5.58 13.6333 5.78 11.4667 6.18 9C6.58 6.53333 7.11333 4.7 7.78 3.5C9.51333 2.56667 11.78 1.76667 14.58 1.1C17.4467 0.366668 20.18 0 22.78 0C25.2467 0 27.9133 0.333333 30.78 0.999999C33.6467 1.66667 35.9133 2.5 37.58 3.5ZM83.58 3.5C84.5133 6.1 85.1467 8.66667 85.48 11.2C85.88 13.6667 86.08 16.2667 86.08 19C86.08 28.2 83.3467 36.6333 77.88 44.3C72.4133 51.9 64.08 57.3333 52.88 60.6C50.28 59.3333 48.4133 57.4 47.28 54.8C46.2133 52.1333 45.8133 49.4667 46.08 46.8C48.28 46.0667 50.6467 44.9667 53.18 43.5C55.7133 41.9667 57.9133 40.0667 59.78 37.8C61.7133 35.5333 62.7133 32.8667 62.78 29.8C61.18 29.5333 59.5133 29.2 57.78 28.8C56.1133 28.3333 54.78 27.7 53.78 26.9C53.18 25.7 52.6467 24 52.18 21.8C51.78 19.5333 51.58 17.4333 51.58 15.5C51.58 13.6333 51.78 11.4667 52.18 9C52.58 6.53333 53.1133 4.7 53.78 3.5C55.5133 2.56667 57.78 1.76667 60.58 1.1C63.4467 0.366668 66.18 0 68.78 0C71.2467 0 73.9133 0.333333 76.78 0.999999C79.6467 1.66667 81.9133 2.5 83.58 3.5Z" fill="#9932F8"/>
</svg>
